<mxfile host="app.diagrams.net" modified="2024-04-19T09:56:48.729Z" agent="Mozilla/5.0 (X11; Linux x86_64) AppleWebKit/537.36 (KHTML, like Gecko) Chrome/114.0.0.0 Safari/537.36" etag="Ivq_Oy2xC02Y5F42g2uL" version="24.2.5" type="device">
  <diagram name="PÃ¡gina-1" id="w8T5Lx9Vd9jRssTpH3An">
    <mxGraphModel dx="1834" dy="1227" grid="0" gridSize="10" guides="1" tooltips="1" connect="1" arrows="1" fold="1" page="0" pageScale="1" pageWidth="827" pageHeight="1169" math="0" shadow="0">
      <root>
        <mxCell id="0" />
        <mxCell id="1" parent="0" />
        <mxCell id="-TJmu-0XLkkpXZLbsgY4-6" style="edgeStyle=none;curved=1;rounded=0;orthogonalLoop=1;jettySize=auto;html=1;exitX=0.5;exitY=1;exitDx=0;exitDy=0;entryX=0.5;entryY=0;entryDx=0;entryDy=0;fontSize=12;startSize=8;endSize=8;" edge="1" parent="1" source="-TJmu-0XLkkpXZLbsgY4-1" target="-TJmu-0XLkkpXZLbsgY4-3">
          <mxGeometry relative="1" as="geometry" />
        </mxCell>
        <mxCell id="-TJmu-0XLkkpXZLbsgY4-1" value="SOBRES" style="rounded=1;whiteSpace=wrap;html=1;" vertex="1" parent="1">
          <mxGeometry x="189" y="-58" width="120" height="60" as="geometry" />
        </mxCell>
        <mxCell id="-TJmu-0XLkkpXZLbsgY4-3" value="GENERAR SOBRE" style="shape=parallelogram;perimeter=parallelogramPerimeter;whiteSpace=wrap;html=1;fixedSize=1;" vertex="1" parent="1">
          <mxGeometry x="156" y="72" width="186" height="60" as="geometry" />
        </mxCell>
        <mxCell id="-TJmu-0XLkkpXZLbsgY4-5" style="rounded=0;orthogonalLoop=1;jettySize=auto;html=1;exitX=0.5;exitY=1;exitDx=0;exitDy=0;entryX=0;entryY=0.5;entryDx=0;entryDy=0;fontSize=12;startSize=8;endSize=8;edgeStyle=orthogonalEdgeStyle;curved=1;" edge="1" parent="1" source="-TJmu-0XLkkpXZLbsgY4-4" target="-TJmu-0XLkkpXZLbsgY4-3">
          <mxGeometry relative="1" as="geometry">
            <Array as="points">
              <mxPoint x="-19" y="37" />
              <mxPoint x="115" y="37" />
              <mxPoint x="115" y="102" />
            </Array>
          </mxGeometry>
        </mxCell>
        <mxCell id="-TJmu-0XLkkpXZLbsgY4-4" value="JOKERS (BD)" style="rounded=1;whiteSpace=wrap;html=1;" vertex="1" parent="1">
          <mxGeometry x="-79" y="-58" width="120" height="60" as="geometry" />
        </mxCell>
        <mxCell id="-TJmu-0XLkkpXZLbsgY4-7" value="" style="shape=process;whiteSpace=wrap;html=1;backgroundOutline=1;" vertex="1" parent="1">
          <mxGeometry x="189" y="174" width="120" height="60" as="geometry" />
        </mxCell>
      </root>
    </mxGraphModel>
  </diagram>
</mxfile>
